<svg width="752" height="720" viewBox="0 0 752 720" fill="none" xmlns="http://www.w3.org/2000/svg">
<path d="M376.77 556.216H376.405C375.37 556.216 374.35 556.216 373.331 556.186L373.651 535.203L376.771 535.218V556.215L376.77 556.216ZM384.486 556.07L383.649 535.102L386.389 534.986L387.576 555.954L384.476 556.07H384.486ZM365.63 555.954L362.57 555.779L364.016 534.839L366.786 534.999L365.629 555.953L365.63 555.954ZM395.276 555.4L393.252 534.505L396.007 534.242L398.32 555.122L395.276 555.399V555.4ZM354.876 555.138L351.801 554.803L354.434 533.966L357.158 534.256L354.876 555.136V555.138ZM405.98 554.176L402.8 533.412L405.54 533.004L409.025 553.724L405.981 554.176H405.98ZM344.162 553.783L341.102 553.287L344.892 532.61L347.586 533.048L344.162 553.783ZM416.602 552.428L412.326 531.828L415.004 531.288L419.631 551.805L416.601 552.417L416.602 552.428ZM333.538 551.888L330.525 551.248L335.44 530.79L338.134 531.358L333.538 551.888ZM427.148 550.125L421.684 529.798L424.347 529.128L430.115 549.382L427.148 550.125ZM323.051 549.47L320.068 548.668L326.125 528.488L328.773 529.188L323.051 549.472V549.47ZM437.527 547.284L430.967 527.248L433.584 526.448L440.464 546.381L437.527 547.285V547.284ZM312.702 546.497L309.796 545.564L316.918 525.704L319.566 526.549L312.702 546.497ZM447.739 543.932L440.053 524.276L442.625 523.328L450.6 542.883L447.74 543.933L447.739 543.932ZM302.518 543L299.641 541.907L307.891 522.454L310.463 523.43L302.519 543H302.518ZM457.734 540.07L449.014 520.807L451.51 519.743L460.55 538.861L457.734 540.071V540.07ZM292.549 538.992L289.734 537.752L299.064 518.752L301.574 519.859L292.549 538.992ZM467.505 535.712L457.705 516.944L460.155 515.749L470.26 534.386L467.506 535.712H467.505ZM282.809 534.474L280.085 533.104L290.42 514.6L292.87 515.84L282.81 534.477L282.809 534.474ZM477 530.862L466.18 512.604L468.57 511.292L479.665 529.39L477.001 530.862H477ZM273.342 529.492L270.694 527.977L282.064 510.025L284.438 511.38L273.343 529.492H273.342ZM486.222 525.542L474.427 507.852L476.725 506.424L488.809 523.938L486.222 525.541V525.542ZM264.149 524.027L261.592 522.38L273.935 505.026L276.233 506.496L264.149 524.026V524.027ZM495.171 519.743L482.387 502.693L484.639 501.133L497.651 518.036L495.171 519.741V519.743ZM255.291 518.111L252.825 516.348L266.081 499.634L268.303 501.224L255.291 518.112V518.111ZM503.738 513.535L490.088 497.113L492.218 495.467L506.158 511.67L503.738 513.535ZM246.783 511.758L244.409 509.863L258.593 493.849L260.709 495.539L246.783 511.757V511.758ZM512.003 506.891L497.438 491.197L499.493 489.434L514.285 504.934L512.003 506.901V506.891ZM238.613 504.981L236.361 502.985L251.366 487.685L253.406 489.492L238.613 504.982V504.981ZM519.873 499.837L504.503 484.872L506.435 483.022L522.065 497.739L519.875 499.837H519.873ZM230.853 497.841L228.693 495.714L244.551 481.214L246.454 483.094L230.854 497.84L230.853 497.841ZM527.361 492.391L511.184 478.228L513.024 476.275L529.43 490.205L527.36 492.39L527.361 492.391ZM223.487 490.293L221.463 488.078L238.067 474.368L239.877 476.348L223.487 490.293ZM534.437 484.596L517.514 471.248L519.249 469.208L536.385 482.293L534.437 484.596ZM216.531 482.396L214.614 480.066L231.964 467.243L233.664 469.298L216.542 482.398L216.531 482.396ZM541.073 476.436L523.433 463.976L525.061 461.834L542.898 474.044L541.072 476.444L541.073 476.436ZM210.033 474.162L208.268 471.758L226.271 459.78L227.854 461.937L210.034 474.162H210.033ZM547.251 467.97L528.958 456.4L530.45 454.2L548.94 465.478L547.24 467.97H547.251ZM203.991 465.61L202.363 463.118L221.006 452.073L222.466 454.303L203.99 465.61H203.991ZM552.974 459.17L534.057 448.562L535.442 446.26L554.512 456.62L552.975 459.17H552.974ZM198.436 456.795L196.93 454.215L216.15 444.117L217.49 446.405L198.436 456.795ZM558.178 450.107L538.714 440.447L539.962 438.101L559.579 447.471L558.179 450.108L558.178 450.107ZM193.353 447.703L192 445.05L211.754 435.943L212.956 438.289L193.354 447.702L193.353 447.703ZM562.896 440.781L542.914 432.155L544.04 429.735L564.16 438.085L562.897 440.78L562.896 440.781ZM188.803 438.348L187.6 435.648L207.826 427.561L208.906 429.979L188.802 438.359L188.803 438.348ZM567.097 431.238L546.657 423.618L547.647 421.141L568.192 428.471L567.097 431.239V431.238ZM184.77 428.805L183.704 426.021L204.356 418.984L205.3 421.446L184.77 428.806V428.805ZM570.75 421.461L549.916 414.918L550.768 412.383L571.694 418.633L570.75 421.46V421.461ZM181.255 419.013L180.357 416.215L201.359 410.182L202.181 412.732L181.255 419.012V419.013ZM573.855 411.581L552.701 406.073L553.401 403.538L574.646 408.711L573.856 411.581H573.855ZM178.288 409.075L177.542 406.205L198.862 401.309L199.532 403.859L178.287 409.076L178.288 409.075ZM576.396 401.512L554.953 397.112L555.516 394.532L577.02 398.626L576.396 401.511V401.512ZM175.883 399.006L175.305 396.106L196.87 392.289L197.387 394.882L175.883 399.006ZM578.375 391.371L556.735 388.034L557.145 385.44L578.847 388.427L578.375 391.371ZM174.042 388.806L173.615 385.892L195.348 383.152L195.728 385.775L174.042 388.805V388.806ZM579.805 381.112L557.997 378.898L558.271 376.288L580.111 378.168L579.806 381.111L579.805 381.112ZM172.763 378.562L172.503 375.604L194.358 374L194.586 376.61L172.762 378.562H172.763ZM580.658 370.796L558.758 369.718L558.88 367.066L580.78 367.866L580.66 370.796H580.658ZM172.063 368.246L171.957 365.302L193.872 364.778L193.962 367.415L172.062 368.245L172.063 368.246ZM559.017 360.479L559 357.84L580.915 357.52L580.931 360.42L559.016 360.478L559.017 360.479ZM193.827 358.177L171.912 357.929L171.972 354.986L193.887 355.54L193.827 358.177ZM558.759 351.257L558.591 348.605L580.461 347.22L580.643 350.15L558.759 351.258V351.257ZM194.207 348.969L172.323 347.614L172.551 344.67L194.405 346.33L194.207 348.968V348.969ZM558.013 342.047L557.709 339.425L579.472 336.933L579.822 339.876L558.012 342.046L558.013 342.047ZM195.075 339.774L173.297 337.312L173.677 334.382L195.41 337.15L195.075 339.773V339.774ZM556.775 332.897L556.319 330.303L577.914 326.703L578.416 329.617L556.776 332.897H556.775ZM196.47 330.653L174.86 327.083L175.408 324.183L196.958 328.043L196.471 330.653H196.47ZM555.01 323.848L554.416 321.254L575.783 316.562L576.453 319.432L555.01 323.847V323.848ZM198.357 321.604L176.975 316.954L177.69 314.054L198.98 319.052L198.356 321.602L198.357 321.604ZM552.742 314.872L551.996 312.322L573.076 306.566L573.896 309.393L552.742 314.873V314.872ZM200.746 312.672L179.653 306.946L180.521 304.104L201.521 310.137L200.745 312.672H200.746ZM549.988 306.042L549.105 303.536L569.833 296.688L570.823 299.485L549.989 306.042H549.988ZM203.623 303.857L182.879 297.052L183.899 294.254L204.536 301.35L203.623 303.857ZM546.746 297.357L545.726 294.909L566.043 287.026L567.17 289.751L546.746 297.357ZM207.001 295.187L186.669 287.333L187.841 284.608L208.041 292.753L206.991 295.187H207.001ZM543.033 288.887L541.891 286.497L561.751 277.593L563.029 280.275L543.032 288.885L543.033 288.887ZM210.853 286.717L190.977 277.843L192.317 275.147L212.025 284.342L210.855 286.717H210.853ZM538.863 280.597L537.583 278.267L556.926 268.373L558.356 270.981L538.861 280.598L538.863 280.597ZM215.173 278.455L195.813 268.59L197.29 265.997L216.48 276.137L215.17 278.454L215.173 278.455ZM534.22 272.525L532.82 270.265L551.584 259.395L553.167 261.93L534.22 272.524V272.525ZM219.936 270.425L201.156 259.585L202.769 257.065L221.367 268.169L219.937 270.427L219.936 270.425ZM529.166 264.699L527.644 262.513L545.784 250.725L547.489 253.173L529.165 264.699H529.166ZM225.126 262.644L206.986 250.87L208.721 248.452L226.711 260.444L225.128 262.644H225.126ZM523.658 257.122L522.014 255.009L539.486 242.332L541.326 244.692L523.656 257.122H523.658ZM230.742 255.125L213.27 242.448L215.142 240.118L232.432 253.018L230.742 255.116V255.125ZM517.768 249.85L516.003 247.825L532.759 234.288L534.722 236.548L517.768 249.851V249.85ZM236.768 247.912L219.998 234.39L222.008 232.146L238.551 245.931L236.771 247.911L236.768 247.912ZM511.468 242.856L509.596 240.918L525.591 226.565L527.691 228.735L511.468 242.855V242.856ZM243.175 241.006L227.175 226.666L229.305 224.524L245.087 239.11L243.184 241.005L243.175 241.006ZM504.787 236.196L502.823 234.36L517.997 219.206L520.203 221.276L504.787 236.196ZM249.947 234.433L234.757 219.293L236.995 217.268L251.955 232.611L249.945 234.433H249.947ZM497.785 229.887L495.7 228.137L510.036 212.254L512.349 214.192L497.785 229.886V229.887ZM257.06 228.2L242.71 212.332L245.053 210.408L259.146 226.495L257.061 228.2H257.06ZM490.38 223.9L488.22 222.268L501.67 205.7L504.09 207.536L490.38 223.9ZM264.5 222.34L251.03 205.772L253.496 203.966L266.676 220.736L264.5 222.339V222.34ZM482.707 218.333L480.44 216.803L492.965 199.58L495.475 201.284L482.705 218.334L482.707 218.333ZM272.247 216.876L259.707 199.652L262.249 197.992L274.515 215.392L272.247 216.878V216.876ZM474.719 213.131L472.389 211.718L483.955 193.882L486.573 195.456L474.718 213.131H474.719ZM280.299 211.805L268.719 193.985L271.367 192.441L282.644 210.441L280.3 211.796L280.299 211.805ZM466.471 208.352L464.066 207.069L474.613 188.666L477.323 190.108L466.473 208.352H466.471ZM288.593 207.157L278 188.77L280.71 187.37L290.998 205.905L288.593 207.158V207.157ZM457.948 203.995L455.483 202.829L465.01 183.915L467.795 185.227L457.948 203.995ZM297.131 202.931L287.574 184.031L290.344 182.778L299.612 201.793L297.132 202.93L297.131 202.931ZM449.213 200.075L446.671 199.04L455.133 179.675L457.979 180.841L449.213 200.075ZM305.883 199.142L297.391 179.792L300.221 178.67L308.424 198.137L305.882 199.142H305.883ZM440.265 196.592L437.678 195.689L445.044 175.916L447.966 176.936L440.266 196.592H440.265ZM314.815 195.806L307.405 176.046L310.312 175.069L317.404 194.929L314.816 195.804L314.815 195.806ZM431.133 193.591L428.485 192.818L434.755 172.71L437.707 173.584L431.133 193.591ZM323.977 192.921L317.661 172.813L320.614 171.983L326.61 192.179L323.977 192.922V192.921ZM421.865 191.056L419.185 190.416L424.329 170.016L427.312 170.73L421.864 191.057L421.865 191.056ZM333.275 190.503L328.101 170.103L331.099 169.433L335.953 189.906L333.275 190.504V190.503ZM412.458 188.987L409.765 188.492L413.752 167.844L416.796 168.412L412.458 188.987ZM342.68 188.565L338.647 167.931L341.691 167.407L345.389 188.097L342.679 188.564L342.68 188.565ZM402.992 187.413L400.252 187.049L403.112 166.241L406.156 166.649L402.99 187.413H402.992ZM352.192 187.093L349.3 166.285L352.375 165.921L354.915 186.771L352.191 187.091L352.192 187.093ZM393.435 186.321L390.68 186.101L392.385 165.176L395.445 165.424L393.435 186.32V186.321ZM361.78 186.121L360.045 165.197L363.119 164.977L364.534 185.931L361.78 186.121ZM383.8 185.699L381.046 185.611L381.594 164.628L384.668 164.73L383.8 185.7V185.699ZM371.397 185.626L370.819 164.643L373.879 164.585L374.169 185.567L371.399 185.627L371.397 185.626Z" fill="#29292E"/>
<path opacity="0.55" d="M376.525 455.87C321.598 455.87 276.919 413.092 276.919 360.503C276.919 307.914 321.599 265.135 376.525 265.135C431.451 265.135 476.131 307.913 476.131 360.503C476.131 413.093 431.435 455.87 376.525 455.87ZM376.525 266.7C322.492 266.7 278.537 308.785 278.537 360.52C278.537 412.255 322.492 454.338 376.525 454.338C430.558 454.338 474.513 412.254 474.513 360.52C474.496 308.786 430.541 266.7 376.525 266.7Z" fill="#202024"/>
<path d="M231.004 334.255C226.352 333.675 225.887 333.208 225.189 328.438C224.607 333.092 224.142 333.558 219.374 334.255C224.026 334.837 224.491 335.303 225.189 340.073C225.769 335.419 226.352 334.953 231.004 334.255Z" fill="#737380"/>
<path d="M485.004 132.255C480.352 131.675 479.887 131.208 479.189 126.438C478.607 131.092 478.142 131.558 473.374 132.255C478.026 132.837 478.491 133.303 479.189 138.073C479.769 133.419 480.352 132.953 485.004 132.255Z" fill="#737380"/>
<path d="M326.004 146.255C321.352 145.675 320.887 145.208 320.189 140.438C319.607 145.092 319.142 145.558 314.374 146.255C319.026 146.837 319.491 147.303 320.189 152.073C320.769 147.419 321.352 146.953 326.004 146.255Z" fill="#737380"/>
<path d="M143.677 425.048C146.054 425.048 147.98 423.121 147.98 420.743C147.98 418.365 146.054 416.438 143.677 416.438C141.3 416.438 139.374 418.365 139.374 420.743C139.374 423.121 141.301 425.048 143.677 425.048Z" fill="#737380"/>
<path d="M524.728 534.85C527.104 534.85 529.031 532.922 529.031 530.544C529.031 528.166 527.104 526.239 524.728 526.239C522.352 526.239 520.425 528.167 520.425 530.544C520.425 532.921 522.351 534.85 524.728 534.85ZM606.826 314C609.203 314 611.129 312.073 611.129 309.695C611.129 307.317 609.203 305.39 606.826 305.39C604.449 305.39 602.523 307.318 602.523 309.695C602.523 312.072 604.45 314 606.826 314Z" fill="#737380"/>
<path d="M327.82 584.617C330.197 584.617 332.123 582.69 332.123 580.312C332.123 577.934 330.197 576.007 327.82 576.007C325.443 576.007 323.517 577.934 323.517 580.312C323.517 582.69 325.444 584.617 327.82 584.617Z" fill="#737380"/>
<path d="M194.653 224.753C197.213 224.751 199.668 223.733 201.478 221.922C203.288 220.111 204.305 217.655 204.306 215.095C204.306 209.761 199.984 205.438 194.653 205.438C189.322 205.438 185 209.76 185 215.095C185.001 217.655 186.018 220.111 187.828 221.922C189.638 223.733 192.093 224.751 194.653 224.753Z" fill="black"/>
<path d="M325.653 238.753C328.213 238.751 330.668 237.733 332.478 235.922C334.288 234.111 335.305 231.655 335.306 229.095C335.306 223.761 330.984 219.438 325.653 219.438C320.322 219.438 316 223.76 316 229.095C316.001 231.655 317.018 234.111 318.828 235.922C320.638 237.733 323.093 238.751 325.653 238.753ZM468.676 483.797C470.712 483.796 472.665 482.986 474.104 481.546C475.543 480.106 476.352 478.153 476.352 476.117C476.352 474.081 475.543 472.128 474.104 470.688C472.664 469.249 470.712 468.439 468.676 468.438C466.64 468.439 464.688 469.249 463.248 470.688C461.809 472.128 461 474.081 461 476.117C461 478.153 461.809 480.106 463.248 481.546C464.687 482.986 466.64 483.796 468.676 483.797Z" fill="black"/>
<path d="M614.145 420.677C614.969 418.815 615.02 416.702 614.286 414.802C613.553 412.902 612.095 411.372 610.233 410.547C606.356 408.831 601.833 410.583 600.108 414.461C598.383 418.339 600.143 422.875 604.008 424.591C607.873 426.307 612.408 424.555 614.134 420.677H614.145ZM175.832 434.907C177.868 434.906 179.82 434.096 181.26 432.657C182.699 431.217 183.508 429.264 183.508 427.228C183.508 425.192 182.699 423.239 181.26 421.799C179.821 420.359 177.868 419.549 175.832 419.548C173.796 419.549 171.844 420.359 170.405 421.799C168.965 423.239 168.157 425.192 168.157 427.228C168.157 429.264 168.966 431.216 170.405 432.656C171.844 434.096 173.796 434.906 175.832 434.907Z" fill="black"/>
<path d="M362.823 594.042C364.859 594.041 366.811 593.231 368.25 591.791C369.689 590.351 370.498 588.399 370.498 586.363C370.498 584.327 369.69 582.374 368.25 580.934C366.811 579.494 364.859 578.684 362.823 578.683C360.787 578.684 358.834 579.494 357.395 580.934C355.956 582.374 355.147 584.327 355.147 586.363C355.147 588.399 355.956 590.352 357.395 591.792C358.835 593.231 360.787 594.041 362.823 594.042Z" fill="black"/>
<path d="M481.283 158.728C484.281 155.728 484.281 150.868 481.283 147.868C478.285 144.868 473.426 144.868 470.428 147.868C467.43 150.868 467.43 155.728 470.428 158.728C473.426 161.728 478.285 161.728 481.283 158.728ZM494.487 222.322C496.863 222.322 498.79 220.395 498.79 218.017C498.79 215.639 496.863 213.712 494.487 213.712C492.111 213.712 490.184 215.639 490.184 218.017C490.184 220.395 492.11 222.322 494.487 222.322Z" fill="black"/>
<path d="M296.27 373.804L310.424 387.958L167.222 531.16L153.068 517.006L296.27 373.804Z" fill="url(#paint0_linear)"/>
<path d="M348.416 425.95L362.57 440.104L219.368 583.306L205.214 569.152L348.416 425.95Z" fill="url(#paint1_linear)"/>
<path d="M329.72 388.031L348.344 406.655L157.464 597.535L138.84 578.912L329.72 388.031Z" fill="url(#paint2_linear)"/>
<path d="M332.344 370.537L312.742 350.935L302.67 356.061L327.13 380.521L332.345 370.538L332.344 370.537Z" fill="#D9D9D9"/>
<path d="M316.705 381.584L301.695 366.574L292.155 372.407L310.875 391.127L316.708 381.585L316.705 381.584Z" fill="#263238"/>
<path d="M318.736 383.968L299.3 364.542L302.748 356.15L327.118 380.52L318.725 383.968H318.736Z" fill="#04D361"/>
<path d="M461.442 241.97L441.222 221.75L311.418 351.554L331.638 371.774L461.442 241.97Z" fill="#EEEEEE"/>
<path d="M448.368 242.857L439.891 234.38L436.975 237.296L445.452 245.773L448.368 242.857ZM444.215 247L435.739 238.523L432.823 241.439L441.299 249.916L444.215 247Z" fill="#263238"/>
<path d="M475.675 207.603C473.732 205.66 470.817 205.22 468.432 206.546L441.232 221.749L461.452 241.969L476.655 214.757C477.98 212.549 477.628 209.557 475.685 207.603H475.675ZM384.995 423.2L365.393 403.597L355.41 408.813L379.868 433.271L384.995 423.201V423.2Z" fill="#D9D9D9"/>
<path d="M369.357 434.237L354.347 419.227L344.805 425.06L363.525 443.78L369.359 434.24L369.357 434.237Z" fill="#263238"/>
<path d="M371.387 436.62L351.962 417.194L355.41 408.802L379.78 433.172L371.387 436.62Z" fill="#04D361"/>
<path d="M514.093 294.62L493.873 274.4L364.068 404.205L384.288 424.425L514.093 294.62Z" fill="#EEEEEE"/>
<path d="M502.545 295.477L494.068 287L491.152 289.916L499.629 298.393L502.545 295.477ZM498.392 299.62L489.916 291.143L487 294.059L495.476 302.536L498.392 299.62Z" fill="#263238"/>
<path d="M528.327 260.256C526.385 258.313 523.47 257.873 521.084 259.198L493.874 274.401L514.094 294.621L529.297 267.411C530.623 265.201 530.271 262.199 528.327 260.257V260.256Z" fill="#D9D9D9"/>
<path d="M606.07 156.677L578.874 129.481L536.814 171.541L564.009 198.737L606.069 156.677H606.07Z" fill="#EEEEEE"/>
<path d="M555.616 201.832L533.806 180.022L536.723 171.629L563.919 198.825L555.615 201.831L555.616 201.832Z" fill="#04D361"/>
<path d="M502.95 254.497L481.14 232.697L484.058 224.305L511.254 251.5L502.949 254.507L502.95 254.497Z" fill="#263238"/>
<path d="M552.698 210.048L525.502 182.853L483.442 224.913L510.638 252.109L552.698 210.049V210.048Z" fill="#EEEEEE"/>
<path d="M555.793 201.656L533.993 179.856L525.601 182.774L552.796 209.97L555.803 201.666L555.793 201.656Z" fill="#D9D9D9"/>
<path d="M500.034 262.712L472.838 235.517L336.67 371.684L363.866 398.88L500.033 262.712H500.034Z" fill="#EEEEEE"/>
<path d="M350.616 403.124L332.868 385.376L322.885 390.768L345.135 413.018L350.615 403.123L350.616 403.124Z" fill="#263238"/>
<path d="M351.763 405.51L330.13 383.877L336.76 371.95L363.69 398.88L351.763 405.51Z" fill="#04D361"/>
<path d="M503.13 254.32L481.33 232.52L472.938 235.438L500.133 262.634L503.14 254.33L503.13 254.32Z" fill="#263238"/>
<path d="M617.92 117.632C614.653 114.365 609.706 113.66 605.642 115.782L578.697 129.66L605.892 156.856L619.947 129.91C622.067 125.846 621.187 120.91 617.92 117.633V117.632Z" fill="#D9D9D9"/>
<path d="M369.815 365.583L368.313 367.052L371.589 370.401L369.704 372.245L360.756 363.096L364.155 359.772C365.236 358.715 366.305 358.14 367.363 358.048C368.42 357.956 369.379 358.35 370.24 359.23C370.85 359.854 371.224 360.509 371.361 361.194C371.499 361.871 371.414 362.601 371.107 363.385L376.743 365.188L376.829 365.276L374.806 367.255L369.815 365.583ZM366.82 365.525L368.34 364.038C368.814 363.575 369.063 363.097 369.09 362.605C369.112 362.108 368.916 361.648 368.502 361.224C368.08 360.793 367.625 360.575 367.136 360.569C366.651 360.56 366.155 360.803 365.648 361.298L364.134 362.779L366.82 365.525ZM374.134 361.138C373.474 360.463 373.016 359.735 372.76 358.953C372.503 358.172 372.477 357.399 372.68 356.634C372.887 355.866 373.313 355.166 373.959 354.535C374.876 353.638 375.898 353.187 377.025 353.183C378.156 353.175 379.227 353.62 380.236 354.518L380.703 354.971C381.724 356.014 382.252 357.136 382.288 358.338C382.321 359.536 381.847 360.614 380.866 361.573C379.886 362.532 378.796 362.984 377.595 362.929C376.398 362.87 375.271 362.3 374.214 361.219L374.134 361.138ZM376.079 359.494C376.71 360.139 377.315 360.514 377.894 360.62C378.468 360.722 378.982 360.551 379.434 360.109C379.874 359.679 380.054 359.175 379.973 358.598C379.889 358.017 379.484 357.356 378.758 356.615C378.14 355.982 377.537 355.613 376.95 355.507C376.363 355.401 375.845 355.567 375.397 356.006C374.953 356.44 374.779 356.95 374.876 357.535C374.969 358.116 375.37 358.769 376.079 359.494ZM386.598 353.103C386.933 352.775 387.115 352.417 387.144 352.028C387.173 351.639 387.042 351.287 386.752 350.973L388.454 349.308C388.901 349.772 389.189 350.318 389.319 350.946C389.445 351.568 389.396 352.198 389.174 352.833C388.951 353.461 388.58 354.028 388.061 354.536C387.089 355.487 386.021 355.929 384.858 355.862C383.69 355.791 382.574 355.211 381.508 354.122L381.392 354.002C380.367 352.955 379.829 351.847 379.775 350.678C379.722 349.509 380.181 348.449 381.153 347.499C382.003 346.667 382.922 346.244 383.908 346.23C384.894 346.208 385.785 346.595 386.58 347.391L384.877 349.057C384.525 348.713 384.137 348.535 383.715 348.522C383.288 348.504 382.903 348.664 382.56 349C382.137 349.414 381.968 349.882 382.053 350.405C382.139 350.92 382.519 351.523 383.195 352.214L383.38 352.402C384.064 353.102 384.662 353.5 385.175 353.597C385.688 353.694 386.162 353.529 386.598 353.103ZM391.592 345.501L391.578 346.794L393.606 348.868L391.79 350.644L382.35 340.992L384.166 339.216L389.396 344.563L389.305 343.767L389.049 340.022L391.229 337.89L391.544 343.127L398.092 344.48L396.006 346.52L391.592 345.501ZM401.79 341.109C400.793 342.084 399.681 342.573 398.455 342.576C397.233 342.575 396.124 342.065 395.128 341.047L394.956 340.871C394.288 340.188 393.824 339.45 393.563 338.656C393.299 337.857 393.266 337.078 393.465 336.318C393.664 335.549 394.074 334.862 394.694 334.255C395.624 333.346 396.641 332.924 397.747 332.99C398.857 333.052 399.938 333.622 400.991 334.698L401.716 335.44L397.387 339.674C397.88 340.06 398.404 340.244 398.959 340.226C399.519 340.203 400.025 339.97 400.478 339.528C401.177 338.844 401.476 338.056 401.374 337.164L403.243 337.29C403.348 337.942 403.274 338.604 403.022 339.276C402.766 339.945 402.356 340.556 401.79 341.109ZM396.126 335.732C395.765 336.084 395.591 336.492 395.602 336.957C395.618 337.417 395.816 337.904 396.195 338.417L398.721 335.947L398.58 335.802C398.178 335.409 397.766 335.205 397.343 335.192C396.917 335.175 396.511 335.355 396.126 335.732ZM399.39 326.638L401.025 328.309L402.187 327.172L403.49 328.504L402.327 329.641L405.646 333.034C405.892 333.286 406.116 333.419 406.319 333.433C406.522 333.448 406.759 333.322 407.032 333.056C407.233 332.859 407.397 332.671 407.523 332.49L408.869 333.866C408.619 334.323 408.306 334.736 407.929 335.104C406.655 336.35 405.377 336.342 404.094 335.081L400.512 331.417L399.519 332.388L398.216 331.056L399.209 330.085L397.574 328.414L399.39 326.638ZM403.483 321.307L412.322 325.644L408.17 316.723L410.646 314.301L419.594 323.45L417.702 325.3L415.256 322.799L411.223 318.298L415.421 327.531L414.127 328.796L405.002 324.394L409.407 328.52L411.852 331.021L409.967 332.865L401.02 323.716L403.483 321.307ZM424.373 319.022C423.376 319.997 422.264 320.486 421.037 320.489C419.815 320.488 418.706 319.978 417.711 318.96L417.538 318.784C416.871 318.102 416.406 317.363 416.146 316.569C415.881 315.77 415.849 314.991 416.048 314.231C416.247 313.462 416.656 312.775 417.276 312.169C418.206 311.259 419.224 310.837 420.33 310.903C421.439 310.965 422.521 311.535 423.574 312.611L424.299 313.353L419.969 317.587C420.462 317.974 420.987 318.158 421.542 318.139C422.102 318.116 422.608 317.883 423.06 317.441C423.76 316.757 424.058 315.969 423.956 315.077L425.826 315.203C425.93 315.855 425.857 316.517 425.605 317.19C425.349 317.858 424.938 318.469 424.373 319.022ZM418.708 313.645C418.348 313.997 418.173 314.406 418.185 314.87C418.2 315.33 418.398 315.817 418.778 316.331L421.304 313.86L421.162 313.716C420.761 313.322 420.348 313.118 419.926 313.105C419.499 313.088 419.093 313.268 418.708 313.645ZM429.927 309.667C429.71 309.445 429.429 309.38 429.084 309.472C428.739 309.555 428.275 309.784 427.69 310.158C425.742 311.401 424.261 311.504 423.249 310.47C422.659 309.866 422.417 309.12 422.522 308.23C422.627 307.332 423.084 306.488 423.893 305.697C424.756 304.853 425.643 304.383 426.556 304.285C427.473 304.183 428.249 304.457 428.884 305.106L427.068 306.882C426.814 306.623 426.521 306.491 426.19 306.487C425.854 306.479 425.508 306.65 425.152 306.998C424.847 307.297 424.677 307.598 424.645 307.9C424.613 308.202 424.701 308.46 424.91 308.673C425.107 308.874 425.361 308.946 425.672 308.887C425.984 308.82 426.411 308.611 426.953 308.261C427.492 307.906 427.971 307.634 428.392 307.444C429.695 306.858 430.771 306.998 431.619 307.865C432.225 308.485 432.451 309.248 432.296 310.154C432.137 311.055 431.636 311.918 430.794 312.741C430.224 313.298 429.619 313.694 428.979 313.927C428.338 314.152 427.72 314.211 427.124 314.105C426.525 313.995 426.024 313.734 425.623 313.324L427.344 311.64C427.677 311.946 428.038 312.077 428.428 312.031C428.818 311.986 429.199 311.781 429.572 311.416C429.92 311.076 430.118 310.755 430.167 310.453C430.216 310.143 430.136 309.881 429.927 309.667ZM436.55 303.19C436.333 302.968 436.052 302.903 435.707 302.994C435.362 303.078 434.897 303.306 434.313 303.681C432.364 304.923 430.884 305.027 429.872 303.992C429.282 303.389 429.04 302.643 429.145 301.753C429.25 300.855 429.707 300.011 430.515 299.22C431.378 298.376 432.266 297.905 433.179 297.808C434.096 297.706 434.871 297.98 435.506 298.629L433.691 300.405C433.437 300.145 433.144 300.014 432.812 300.01C432.477 300.002 432.131 300.172 431.775 300.521C431.469 300.82 431.3 301.12 431.268 301.422C431.235 301.724 431.324 301.982 431.533 302.196C431.729 302.397 431.983 302.468 432.295 302.41C432.606 302.343 433.033 302.134 433.576 301.784C434.114 301.429 434.594 301.157 435.014 300.967C436.318 300.38 437.394 300.521 438.242 301.388C438.848 302.008 439.074 302.771 438.919 303.676C438.759 304.578 438.259 305.44 437.417 306.264C436.847 306.821 436.242 307.216 435.601 307.449C434.961 307.674 434.343 307.734 433.747 307.628C433.148 307.518 432.647 307.257 432.246 306.847L433.967 305.163C434.299 305.469 434.661 305.599 435.051 305.554C435.44 305.509 435.822 305.304 436.195 304.939C436.542 304.599 436.741 304.278 436.79 303.976C436.839 303.666 436.759 303.404 436.55 303.19ZM445.268 298.34C445.024 298.258 444.765 298.114 444.489 297.908C444.529 298.829 444.197 299.633 443.493 300.321C442.827 300.973 442.085 301.321 441.269 301.366C440.456 301.406 439.763 301.133 439.189 300.547C438.485 299.826 438.21 299.013 438.365 298.108C438.524 297.198 439.107 296.247 440.112 295.256L440.948 294.438L440.567 294.049C440.259 293.734 439.932 293.563 439.584 293.534C439.241 293.502 438.895 293.655 438.547 293.995C438.242 294.294 438.072 294.603 438.04 294.922C438.012 295.236 438.122 295.521 438.372 295.777L436.556 297.553C436.171 297.159 435.936 296.676 435.851 296.103C435.767 295.531 435.854 294.933 436.114 294.31C436.369 293.683 436.774 293.099 437.327 292.558C438.164 291.739 439.035 291.301 439.939 291.245C440.843 291.18 441.668 291.529 442.414 292.292L445.296 295.239C445.931 295.88 446.498 296.279 446.998 296.438L447.102 296.545L445.268 298.34ZM442.531 298.545C442.799 298.283 442.988 297.983 443.1 297.644C443.207 297.302 443.217 296.976 443.129 296.669L441.986 295.5L441.308 296.164C440.399 297.053 440.222 297.84 440.778 298.526L440.876 298.639C441.098 298.865 441.359 298.974 441.662 298.965C441.965 298.956 442.254 298.816 442.531 298.545ZM444.589 292.254C443.569 291.211 442.995 290.129 442.866 289.009C442.742 287.885 443.101 286.911 443.943 286.087C444.689 285.358 445.519 285.046 446.433 285.151L445.882 284.437L447.528 282.827L453.956 289.399C454.538 289.994 454.908 290.644 455.066 291.351C455.228 292.053 455.176 292.759 454.912 293.468C454.647 294.178 454.186 294.854 453.528 295.498C453.029 295.985 452.445 296.36 451.775 296.622C451.109 296.888 450.501 296.983 449.951 296.906L449.674 295.014C450.622 295.078 451.418 294.795 452.064 294.164C452.545 293.693 452.793 293.196 452.807 292.674C452.825 292.156 452.603 291.661 452.14 291.188L451.784 290.823C451.828 291.706 451.508 292.482 450.826 293.149C450.009 293.948 449.036 294.277 447.906 294.136C446.776 293.987 445.695 293.385 444.663 292.329L444.589 292.254ZM446.534 290.61C447.136 291.225 447.733 291.588 448.325 291.698C448.912 291.804 449.421 291.646 449.853 291.224C450.405 290.684 450.598 290.089 450.432 289.441L447.635 286.582C446.987 286.405 446.392 286.581 445.852 287.109C445.416 287.535 445.247 288.049 445.344 288.651C445.445 289.249 445.842 289.902 446.534 290.61ZM458.831 285.32C457.834 286.295 456.722 286.784 455.495 286.787C454.273 286.786 453.164 286.277 452.169 285.259L451.997 285.083C451.329 284.4 450.865 283.661 450.604 282.867C450.339 282.069 450.307 281.289 450.506 280.529C450.705 279.761 451.114 279.073 451.734 278.467C452.664 277.557 453.682 277.136 454.788 277.202C455.897 277.264 456.979 277.833 458.032 278.91L458.757 279.651L454.428 283.885C454.92 284.272 455.445 284.456 456 284.437C456.56 284.414 457.066 284.182 457.518 283.739C458.218 283.055 458.516 282.267 458.414 281.375L460.284 281.501C460.388 282.153 460.315 282.815 460.063 283.488C459.807 284.156 459.396 284.767 458.831 285.32ZM453.166 279.943C452.806 280.296 452.631 280.704 452.643 281.168C452.658 281.628 452.856 282.115 453.236 282.629L455.762 280.159L455.62 280.014C455.219 279.62 454.807 279.417 454.384 279.404C453.957 279.386 453.551 279.566 453.166 279.943ZM464.385 275.966C464.168 275.744 463.887 275.678 463.542 275.77C463.197 275.853 462.733 276.082 462.148 276.457C460.2 277.699 458.719 277.803 457.707 276.768C457.117 276.165 456.875 275.418 456.98 274.529C457.085 273.631 457.542 272.786 458.351 271.996C459.214 271.152 460.101 270.681 461.014 270.583C461.931 270.482 462.707 270.755 463.342 271.405L461.526 273.181C461.272 272.921 460.979 272.789 460.648 272.786C460.312 272.778 459.966 272.948 459.61 273.296C459.305 273.595 459.136 273.896 459.103 274.198C459.071 274.5 459.159 274.758 459.368 274.972C459.565 275.173 459.819 275.244 460.13 275.185C460.442 275.118 460.869 274.91 461.411 274.559C461.95 274.205 462.429 273.932 462.85 273.742C464.153 273.156 465.229 273.296 466.077 274.163C466.683 274.783 466.909 275.546 466.754 276.452C466.595 277.353 466.094 278.216 465.252 279.039C464.683 279.597 464.077 279.992 463.437 280.225C462.796 280.45 462.178 280.509 461.583 280.403C460.983 280.293 460.482 280.033 460.081 279.622L461.803 277.938C462.135 278.245 462.496 278.375 462.886 278.33C463.276 278.284 463.657 278.079 464.03 277.714C464.378 277.374 464.576 277.053 464.625 276.752C464.674 276.441 464.594 276.179 464.385 275.966Z" fill="#41414D"/>
<path d="M472.053 275.563L470.717 276.899L464.222 263.743L465.559 262.406L472.053 275.563ZM475.279 263.065L470.406 265.414L468.678 263.687L476.36 260.542L477.82 262.002L474.682 269.69L472.948 267.956L475.279 263.065Z" fill="#8257E6"/>
<path d="M361.324 375.107L366.116 372.814L367.856 374.554L360.237 377.636L358.77 376.17L361.852 368.55L363.593 370.291L361.324 375.107Z" fill="#8257E6"/>
<defs>
<linearGradient id="paint0_linear" x1="303.347" y1="380.881" x2="160.146" y2="524.083" gradientUnits="userSpaceOnUse">
<stop offset="0.281" stop-color="#6633CC"/>
<stop offset="1" stop-color="#121214"/>
</linearGradient>
<linearGradient id="paint1_linear" x1="355.493" y1="433.027" x2="212.292" y2="576.228" gradientUnits="userSpaceOnUse">
<stop offset="0.281" stop-color="#6633CC"/>
<stop offset="1" stop-color="#121214"/>
</linearGradient>
<linearGradient id="paint2_linear" x1="339.031" y1="397.343" x2="148.15" y2="588.224" gradientUnits="userSpaceOnUse">
<stop offset="0.281" stop-color="#6633CC"/>
<stop offset="1" stop-color="#121214"/>
</linearGradient>
</defs>
</svg>
